<?xml version="1.0" encoding="UTF-8" standalone="no"?>
<svg
   version="1.1"
   viewBox="-5 -10 90.000198 70.0588"
   fill="#000000"
   id="svg1"
   width="90.000198"
   height="70.0588"
   xmlns="http://www.w3.org/2000/svg"
   xmlns:svg="http://www.w3.org/2000/svg">
  <defs
     id="defs1" />
  <path
     d="m 34.6716,7.08122 0.51172,0.3125 c 0.02734,0.01562 0.05469,0.03125 0.07813,0.04687 l 10.16,6.1953 1.2461,-2.043 -10.75,-6.5547 z m -7.2773,14.395 c 0.17188,-0.82031 0.41797,-1.6719 0.74219,-2.5312 0.42969,-1.1406 0.99219,-2.3008 1.6875,-3.4414 0.76562,-1.2539 1.6211,-2.375 2.5312,-3.3398 0.71094,-0.75781 1.4531,-1.418 2.1992,-1.9688 l 8.1484,4.9688 c -0.14844,0.91406 -0.39453,1.875 -0.74609,2.8594 -0.44531,1.25 -1.0469,2.5273 -1.8086,3.7773 -0.69922,1.1484 -1.4727,2.1797 -2.2812,3.0781 -0.61328,0.67969 -1.2578,1.2891 -1.9102,1.8164 l -8.5625,-5.2227 z m -3.7578,3.6992 10.75,6.5547 1.2461,-2.043 -10.398,-6.3438 c -0.03516,-0.01953 -0.06641,-0.03906 -0.09766,-0.05859 l -0.25391,-0.15234 -1.2461,2.0469 z m 18.016,-0.69922 c 2.2734,1.7031 4.4688,3.4062 6.5,4.9805 3.5859,2.7812 6.6562,5.1641 8.6641,6.3867 1.043,0.63672 2.2109,0.84375 3.25,0.65625 0.97656,-0.17188 1.8281,-0.69141 2.3359,-1.5195 v -0.0039 c 0.50781,-0.82812 0.57812,-1.8281 0.28516,-2.7773 -0.3125,-1.0039 -1.0273,-1.9414 -2.0742,-2.5781 -2.1406,-1.3047 -5.8477,-3.0508 -10.098,-5.0508 -2.2148,-1.043 -4.5742,-2.1523 -6.9609,-3.3203 -0.32031,0.65625 -0.67969,1.3164 -1.0781,1.9688 -0.26172,0.42969 -0.53516,0.85156 -0.82031,1.2539 z m 2.9453,-5.7383 c 2.4023,1.1758 4.8164,2.3125 7.0781,3.375 4.3125,2.0312 8.0781,3.8047 10.352,5.1875 1.6328,0.99219 2.7578,2.4883 3.2578,4.1055 0.51953,1.668 0.37109,3.4648 -0.5625,4.9961 l -0.09375,0.14844 -0.0078,0.0078 c -0.94141,1.4375 -2.4258,2.3359 -4.0898,2.6289 -1.6562,0.29297 -3.5,-0.02344 -5.1328,-1.0195 -2.125,-1.2969 -5.2578,-3.7266 -8.9102,-6.5586 -2.043,-1.5859 -4.2539,-3.3008 -6.5234,-5 l -0.08594,0.09375 c -0.54297,0.60156 -1.1016,1.1523 -1.6719,1.6523 0.12109,0.19922 0.21484,0.41797 0.26953,0.64453 0.13281,0.55078 0.05859,1.1523 -0.26172,1.6758 l -1.7734,2.9062 c -0.31641,0.51953 -0.82031,0.86328 -1.3711,0.99609 -0.55078,0.13281 -1.1523,0.05859 -1.6758,-0.26172 l -11.613,-7.082 c -0.51953,-0.31641 -0.86328,-0.82031 -0.99609,-1.3711 -0.13281,-0.55078 -0.05859,-1.1523 0.26172,-1.6758 l 1.7734,-2.9062 c 0.31641,-0.51953 0.82031,-0.86328 1.3711,-0.99609 0.22656,-0.05469 0.46094,-0.07422 0.69531,-0.05469 0.18359,-0.73828 0.41797,-1.4883 0.70312,-2.2422 0.48828,-1.2969 1.125,-2.6094 1.9102,-3.8984 0.86328,-1.418 1.8398,-2.6875 2.8711,-3.7891 0.59375,-0.63281 1.207,-1.207 1.832,-1.7227 C 32.02039,8.33552 31.89539,8.05818 31.82507,7.76912 31.69226,7.21834 31.76648,6.61682 32.08679,6.09332 l 1.7734,-2.9062 C 34.1766,2.66759 34.6805,2.32384 35.23129,2.19103 35.63754,2.09337 36.07113,2.109 36.47739,2.24962 h 0.09766 l 11.941,7.2852 c 0.51953,0.31641 0.86328,0.82031 0.99609,1.3711 0.13281,0.55078 0.05859,1.1523 -0.26172,1.6758 l -1.7734,2.9062 c -0.31641,0.51953 -0.82031,0.86328 -1.3711,0.99609 -0.28906,0.07031 -0.59375,0.08203 -0.89453,0.03125 -0.15625,0.73047 -0.36328,1.4727 -0.62109,2.2227 z m 12.414,-4.0703 c -0.34375,-0.34375 -0.81641,-0.55469 -1.3398,-0.55469 -0.52339,0 -0.99609,0.21094 -1.3398,0.55469 -0.34371,0.34375 -0.55469,0.81641 -0.55469,1.3398 0,0.52344 0.21094,0.99609 0.55469,1.3398 0.34375,0.34371 0.81641,0.55469 1.3398,0.55469 0.52339,0 0.99609,-0.21094 1.3398,-0.55469 0.34371,-0.34375 0.55469,-0.81641 0.55469,-1.3398 0,-0.52344 -0.21094,-0.99609 -0.55469,-1.3398 z m -1.1094,-3.2773 c 1.1836,0.05859 2.2539,0.5625 3.0391,1.3477 0.83594,0.83594 1.3555,1.9922 1.3555,3.2695 0,1.2773 -0.51953,2.4336 -1.3555,3.2695 -0.83594,0.83594 -1.9922,1.3555 -3.2695,1.3555 -1.2773,0 -2.4336,-0.51953 -3.2695,-1.3555 -0.83594,-0.83594 -1.3555,-1.9922 -1.3555,-3.2695 0,-1.2773 0.51953,-2.4336 1.3555,-3.2695 0.25391,-0.25391 0.53516,-0.47656 0.84375,-0.66797 -1.3203,-3.3008 -3.5586,-6.1367 -6.3945,-8.1992 -3.0859,-2.2422 -6.8828,-3.5625 -10.988,-3.5625 -5.168,0 -9.8477,2.0938 -13.234,5.4805 -3.3867,3.3867 -5.4805,8.0664 -5.4805,13.234 0,5.168 2.0938,9.8477 5.4805,13.234 3.3867,3.3867 8.0664,5.4805 13.234,5.4805 1.6523,0 3.2461,-0.21094 4.7578,-0.60547 1.5664,-0.41016 3.0547,-1.0156 4.4258,-1.7891 0.65234,-0.36719 1.4805,-0.13672 1.8477,0.51562 0.36719,0.65234 0.13672,1.4805 -0.51562,1.8477 -1.582,0.89062 -3.2852,1.5898 -5.0742,2.0586 -1.7461,0.45703 -3.5703,0.69922 -5.4375,0.69922 -5.9219,0 -11.281,-2.3984 -15.164,-6.2812 -3.883,-3.8828 -6.2812,-9.2422 -6.2812,-15.164 0,-5.9219 2.3984,-11.281 6.2812,-15.164 3.8828,-3.883 9.2422,-6.2812 15.164,-6.2812 4.7031,0 9.0508,1.5156 12.59,4.0859 3.3438,2.4297 5.957,5.8008 7.4531,9.7227 z m 26.215,32.395 h 1.5195 c 0.75391,0 1.3633,0.60938 1.3633,1.3633 v 6.7734 c 0,2.2578 -1.0039,4.3047 -2.6211,5.7852 -1.5859,1.4492 -3.7617,2.3516 -6.1445,2.3516 H 3.7656 c -2.3828,0 -4.5586,-0.90234 -6.1445,-2.3516 C -3.9961,56.2267 -5,54.1799 -5,51.922 v -6.7734 c 0,-0.75391 0.60938,-1.3633 1.3633,-1.3633 h 1.5195 v -52.422 c 0,-0.75391 0.60938,-1.3633 1.3633,-1.3633 h 81.504 c 0.75391,0 1.3633,0.60938 1.3633,1.3633 v 52.426 z m -50.199,3.8789 -1.6211,-3.043 c -0.20703,-0.49219 -0.69141,-0.83594 -1.2578,-0.83594 h -28.43 v -51.062 h 78.777 v 51.059 h -28.43 v 0.0039 c -0.48438,0 -0.95312,0.26172 -1.1992,0.71875 l -1.6797,3.1562 h -16.164 z m -0.8125,2.7266 c -0.56641,0 -1.0508,-0.34375 -1.2578,-0.83594 l -1.6211,-3.0469 -30.5,0.0039 v 5.4102 c 0,1.4688 0.66016,2.8086 1.7266,3.7812 1.0977,1.0039 2.6211,1.6289 4.3125,1.6289 h 72.469 c 1.6875,0 3.2148,-0.62109 4.3125,-1.6289 1.0664,-0.97656 1.7266,-2.3125 1.7266,-3.7812 v -5.4102 h -30.5 l -1.6211,3.0469 c -0.20703,0.48828 -0.69141,0.83594 -1.2578,0.83594 h -17.789 z"
     fill-rule="evenodd"
     id="path1" />
</svg>
