<svg xmlns="http://www.w3.org/2000/svg" data-name="Layer 1" width="500px" height="100px" viewBox="0 0 50000 10000" x="0px" y="0px" fill="#48566b">
    <title>logo-wide</title>
    <polygon points="583 691 583 9371 2720 7233 4922 5031 583 691"/>
    <polygon points="4852 9465 2770 7384 689 9465 4852 9465"/>
    <polygon points="7346 7112 9441 5017 9441 713 7346 2808 7346 7112"/>
    <rect x="3501" y="5762" width="3044" height="3044" transform="translate(-3679 5685) rotate(-45)"/>
    <polygon points="9441 9465 9441 5218 7325 7334 5194 9465 9441 9465"/>
    <polygon points="9347 607 698 607 5023 4931 7225 2729 9347 607"/>
    <polygon points="7204 2950 5123 5031 7204 7112 7204 2950"/>

    <text x="11500" y="6000" font-size="6000px" font-weight="bold" font-family="'Helvetica Neue', Helvetica, Arial-Unicode, Arial, Sans-serif">LegalTech</text>
    <text x="25500" y="9000" font-size="2000px" font-weight="bold" font-family="'Helvetica Neue', Helvetica, Arial-Unicode, Arial, Sans-serif">BookSeer Project</text>

</svg>
